<?xml version="1.0" standalone="no"?>
<!DOCTYPE svg PUBLIC "-//W3C//DTD SVG 1.0//EN" "http://www.w3.org/TR/2001/REC-SVG-20010904/DTD/svg10.dtd">
<svg xmlns="http://www.w3.org/2000/svg" xmlns:xlink="http://www.w3.org/1999/xlink" id="body_1" width="48" height="48">
<g transform="matrix(0.888889 0 0 0.888889 0 0)">
	<g transform="matrix(1 0 0 1 0 0)">
	</g>
    <path transform="matrix(1 0 0 1 0 0)"  d="M1.54508 48.758L26.6384 23.6865L22.979 19.978L21.097 21.8323C 20.0776 22.8508 18.4308 22.8508 17.4114 21.8323L17.4114 21.8323L15.5555 19.978C 14.5361 18.9595 14.5361 17.3142 15.5555 16.2956L15.5555 16.2956L30.3502 1.5139C 31.3696 0.495367 33.0163 0.495367 34.0357 1.5139L34.0357 1.5139L35.8916 3.36814C 36.911 4.38667 36.911 6.03199 35.8916 7.05052L35.8916 7.05052L34.0357 8.85254L37.7475 12.5871C 38.7669 11.5686 40.4136 11.5686 41.4331 12.5871C 42.4525 13.6057 42.4525 15.2771 41.4331 16.2956L41.4331 16.2956L45.1186 19.978L46.9745 18.1238C 47.9939 17.1052 49.6668 17.1052 50.6862 18.1238L50.6862 18.1238L52.516 19.978C 53.5354 20.9966 53.5354 22.668 52.516 23.6865L52.516 23.6865L37.7475 38.4421C 36.7281 39.4607 35.0552 39.4607 34.0357 38.4421L34.0357 38.4421L32.206 36.614C 31.1605 35.5955 31.1605 33.924 32.206 32.9055L32.206 32.9055L34.0357 31.0513L30.3502 27.3689L5.23067 52.4665C 4.21125 53.4851 2.5645 53.4851 1.54508 52.4665C 0.525663 51.448 0.525663 49.7766 1.54508 48.758zM47.811 45.4152C 49.1974 45.4152 50.5272 45.9655 51.5076 46.945C 52.488 47.9245 53.0387 49.2531 53.0387 50.6384L53.0387 50.6384L53.0387 53.25L26.8998 53.25L26.8998 50.6384C 26.8998 49.2531 27.4506 47.9245 28.431 46.945C 29.4114 45.9655 30.7411 45.4152 32.1276 45.4152L32.1276 45.4152L47.811 45.4152z" stroke="none" />
</g>
</svg>
