<svg xmlns="http://www.w3.org/2000/svg" width="48" height="48" fill="currentColor" viewBox="0 0 48 48">
  <defs/>
  <g class="Base/Youtube">
    <path d="M46.042 12.153c-.53-2.03-2.087-3.624-4.067-4.167C38.385 7 24 7 24 7S9.615 7 6.029 7.986c-1.98.543-3.537 2.138-4.067 4.167C1 15.828 1 23.5 1 23.5s0 7.672.962 11.347c.53 2.03 2.086 3.624 4.067 4.167C9.615 40 24 40 24 40s14.385 0 17.971-.986c1.98-.543 3.537-2.138 4.067-4.167C47 31.172 47 23.5 47 23.5s0-7.672-.962-11.347h.004zM19.399 30.57V16.43l11.95 7.07-11.95 7.07z" class="Vector"/>
  </g>
</svg>
