<?xml version="1.0" encoding="utf-8"?><svg xmlns="http://www.w3.org/2000/svg" xmlns:xlink="http://www.w3.org/1999/xlink"><symbol viewBox="0 0 48 48" id="volume-high" xmlns="http://www.w3.org/2000/svg"><path d="M0 0h48v48H0z" fill="none"/><path d="M28.614 4v4.752a16.138 16.138 0 010 30.934v4.775a20.747 20.747 0 000-40.461m5.767 20.23a10.3 10.3 0 00-5.767-9.3v18.528a10.146 10.146 0 005.767-9.227M3.239 17.31v13.841h9.227L24 42.685V5.776L12.466 17.31z"/></symbol><symbol fill="currentColor" viewBox="0 0 48 48" id="youtube" xmlns="http://www.w3.org/2000/svg"><g class="bBase/Youtube"><path d="M46.042 12.153c-.53-2.03-2.087-3.624-4.067-4.167C38.385 7 24 7 24 7S9.615 7 6.029 7.986c-1.98.543-3.537 2.138-4.067 4.167C1 15.828 1 23.5 1 23.5s0 7.672.962 11.347c.53 2.03 2.086 3.624 4.067 4.167C9.615 40 24 40 24 40s14.385 0 17.971-.986c1.98-.543 3.537-2.138 4.067-4.167C47 31.172 47 23.5 47 23.5s0-7.672-.962-11.347h.004zM19.399 30.57V16.43l11.95 7.07-11.95 7.07z" class="bVector"/></g></symbol></svg>