<svg xmlns="http://www.w3.org/2000/svg" xmlns:xlink="http://www.w3.org/1999/xlink"><symbol viewBox="0 0 48 48" id="auction" xmlns="http://www.w3.org/2000/svg"><path d="M1.373 43.34L23.68 21.055l-3.253-3.297-1.673 1.648a2.315 2.315 0 01-3.276 0l-1.65-1.648a2.31 2.31 0 010-3.273l13.151-13.14a2.315 2.315 0 013.276 0l1.65 1.649a2.31 2.31 0 010 3.273l-1.65 1.602 3.3 3.32a2.315 2.315 0 013.275 0 2.339 2.339 0 010 3.296l3.276 3.273 1.65-1.648a2.343 2.343 0 013.3 0l1.626 1.648a2.339 2.339 0 010 3.297L33.553 34.17a2.343 2.343 0 01-3.299 0l-1.626-1.625a2.297 2.297 0 010-3.297l1.626-1.648-3.276-3.273-22.329 22.31a2.315 2.315 0 01-3.276 0 2.338 2.338 0 010-3.297zM42.5 40.37a4.64 4.64 0 014.647 4.643v-.001 2.321H23.91v-2.321a4.64 4.64 0 014.647-4.643h13.94z"/></symbol><symbol viewBox="0 0 48 48" id="volume-high" xmlns="http://www.w3.org/2000/svg"><path d="M0 0h48v48H0z" fill="none"/><path d="M28.614 4v4.752a16.138 16.138 0 010 30.934v4.775a20.747 20.747 0 000-40.461m5.767 20.23a10.3 10.3 0 00-5.767-9.3v18.528a10.146 10.146 0 005.767-9.227M3.239 17.31v13.841h9.227L24 42.685V5.776L12.466 17.31z"/></symbol><symbol fill="currentColor" viewBox="0 0 48 48" id="youtube" xmlns="http://www.w3.org/2000/svg"><g class="cBase/Youtube"><path d="M46.042 12.153c-.53-2.03-2.087-3.624-4.067-4.167C38.385 7 24 7 24 7S9.615 7 6.029 7.986c-1.98.543-3.537 2.138-4.067 4.167C1 15.828 1 23.5 1 23.5s0 7.672.962 11.347c.53 2.03 2.086 3.624 4.067 4.167C9.615 40 24 40 24 40s14.385 0 17.971-.986c1.98-.543 3.537-2.138 4.067-4.167C47 31.172 47 23.5 47 23.5s0-7.672-.962-11.347h.004zM19.399 30.57V16.43l11.95 7.07-11.95 7.07z" class="cVector"/></g></symbol></svg>